<svg width="24" height="24" viewBox="0 0 24 24" fill="none" xmlns="http://www.w3.org/2000/svg">
<circle cx="12" cy="12" r="9" fill="#EA2715"/>
<path d="M12.6792 14.5285C12.6699 14.5472 12.6652 14.5612 12.6652 14.5705C12.6652 14.5798 12.6605 14.5892 12.6512 14.5985C12.6325 14.6172 12.5625 14.6265 12.4412 14.6265H11.4052C11.3679 14.6265 11.3492 14.6172 11.3492 14.5985C11.3212 14.5705 11.3072 14.4912 11.3072 14.3605L11.1112 6.9685C11.1019 6.7725 11.1112 6.65583 11.1392 6.6185C11.1672 6.58117 11.2465 6.5625 11.3772 6.5625H12.6232C12.7539 6.5625 12.8285 6.58117 12.8472 6.6185C12.8752 6.65583 12.8845 6.7725 12.8752 6.9685L12.6792 14.3605V14.5285ZM11.9932 17.4405C11.7132 17.4405 11.4799 17.3472 11.2932 17.1605C11.1065 16.9645 11.0132 16.7312 11.0132 16.4605C11.0132 16.1898 11.1065 15.9565 11.2932 15.7605C11.4799 15.5645 11.7132 15.4665 11.9932 15.4665C12.2732 15.4665 12.5065 15.5645 12.6932 15.7605C12.8892 15.9565 12.9872 16.1898 12.9872 16.4605C12.9872 16.7312 12.8892 16.9645 12.6932 17.1605C12.5065 17.3472 12.2732 17.4405 11.9932 17.4405Z" fill="white"/>
</svg>
